<?xml version="1.0" standalone="no"?>
<!DOCTYPE svg PUBLIC "-//W3C//DTD SVG 20010904//EN"
 "http://www.w3.org/TR/2001/REC-SVG-20010904/DTD/svg10.dtd">
<svg version="1.0" xmlns="http://www.w3.org/2000/svg"
 width="752.000000pt" height="752.000000pt" viewBox="0 0 752.000000 752.000000"
 preserveAspectRatio="xMidYMid meet">

<g transform="translate(0.000000,752.000000) scale(0.100000,-0.100000)"
fill="#000000" stroke="none">
<path d="M2197 5990 c-96 -30 -171 -98 -220 -200 l-32 -65 0 -1960 0 -1960 23
-57 c30 -75 96 -147 174 -189 l63 -34 1550 0 1550 0 60 29 c73 36 135 99 172
174 l28 57 0 1470 0 1470 -24 50 c-19 39 -142 168 -560 588 -295 296 -558 554
-584 574 -26 19 -75 44 -108 54 -58 18 -109 19 -1047 18 -931 0 -990 -1 -1045
-19z m1953 -640 c0 -265 4 -428 11 -462 25 -115 101 -213 207 -265 l57 -28
448 -3 447 -3 0 -1377 c0 -1232 -2 -1380 -16 -1400 -38 -55 50 -52 -1546 -52
-1460 0 -1473 0 -1506 20 -67 41 -62 -104 -60 1994 l3 1905 21 28 c11 15 32
34 45 40 19 10 236 13 957 13 l932 0 0 -410z m630 -145 l365 -365 -332 0 -333
0 -32 29 -33 29 -3 336 c-1 185 -1 336 0 336 2 0 167 -164 368 -365z"/>
<path d="M3292 4020 c-233 -76 -433 -147 -444 -157 -48 -42 -48 -48 -47 -635
0 -589 1 -605 49 -639 35 -25 870 -299 911 -299 35 0 831 255 887 284 64 33
62 17 62 651 0 629 1 618 -58 649 -15 8 -147 53 -292 101 -146 47 -333 109
-415 136 -86 28 -167 49 -190 48 -22 0 -226 -61 -463 -139z m673 -180 c105
-34 193 -65 197 -69 4 -4 -84 -37 -197 -74 l-204 -68 -208 67 c-114 37 -203
69 -198 71 43 19 402 140 410 138 6 -1 96 -30 200 -65z m-613 -342 l278 -93 0
-407 c0 -225 -3 -408 -7 -408 -4 0 -133 42 -285 92 l-278 93 0 407 c0 225 3
408 7 408 4 0 133 -42 285 -92z m1108 -316 l0 -407 -278 -93 c-152 -50 -281
-92 -285 -92 -4 0 -7 184 -7 408 l0 408 278 92 c152 50 280 92 285 92 4 0 7
-183 7 -408z"/>
</g>
</svg>
